<?xml version="1.0" encoding="UTF-8"?>
<svg width="32px" height="32px" viewBox="0 0 32 32" version="1.1" xmlns="http://www.w3.org/2000/svg" xmlns:xlink="http://www.w3.org/1999/xlink">
    <!-- Generator: Sketch 53.2 (72643) - https://sketchapp.com -->
    <title>ab-logo</title>
    <desc>Created with Sketch.</desc>
    <g id="Page-1" stroke="none" stroke-width="1" fill="none" fill-rule="evenodd">
        <g id="3-设置" transform="translate(-24.000000, -16.000000)">
            <g id="Group-4">
                <g id="ab-logo" transform="translate(24.000000, 16.000000)">
                    <path d="M16,30.1395349 C23.8090495,30.1395349 30.1395349,23.8090495 30.1395349,16 C30.1395349,8.19095051 23.8090495,1.86046512 16,1.86046512 C8.19095051,1.86046512 1.86046512,8.19095051 1.86046512,16 C1.86046512,23.8090495 8.19095051,30.1395349 16,30.1395349 Z M16,32 C7.163444,32 0,24.836556 0,16 C0,7.163444 7.163444,0 16,0 C24.836556,0 32,7.163444 32,16 C32,24.836556 24.836556,32 16,32 Z" id="Oval-Copy-4" fill="#558CD8" fill-rule="nonzero"></path>
                    <path d="M15.4418605,28.8252939 C8.79606355,28.5409931 3.45900694,23.2039365 3.17470607,16.5581395 L8.18604651,16.5581395 L8.18604651,14.8837209 C8.18604651,14.267217 8.68582167,13.7674419 9.30232558,13.7674419 C9.91882949,13.7674419 10.4186047,14.267217 10.4186047,14.8837209 L10.4186047,16.5581395 L15.4418605,16.5581395 L15.4418605,20.0930233 L15.2558677,20.0930233 C13.8173586,20.0930233 12.6512166,21.2591653 12.6512166,22.6976744 C12.6512166,24.1361835 13.8173586,25.3023256 15.2558677,25.3023256 L15.4418605,25.3023256 L15.4418605,28.8252939 L15.4418605,28.8252939 Z" id="Path" fill="#34B082"></path>
                    <path d="M3.19597889,15.0697674 C3.65942888,8.59787413 8.92056205,3.45368101 15.4418605,3.17470607 L15.4418605,7.81395349 L16.1860465,7.81395349 L16.1860465,7.8145075 C16.1887738,7.81413929 16.1915258,7.81395349 16.1943024,7.81395349 L17.1162791,7.81395349 C17.732783,7.81395349 18.2325581,8.31372865 18.2325581,8.93023256 C18.2325581,9.54673646 17.732783,10.0465116 17.1162791,10.0465116 L16.1943024,10.0465116 C16.1915251,10.0465116 16.1887732,10.0463357 16.1860465,10.0459868 L16.1860465,10.0465116 L15.4418605,10.0465116 L15.4418605,15.0697674 L11.9069767,15.0697674 L11.9069767,14.8837209 C11.9069767,13.4452118 10.7408347,12.2790698 9.30232558,12.2790698 C7.86381647,12.2790698 6.69767442,13.4452118 6.69767442,14.8837209 L6.69767442,15.0697674 L3.19597889,15.0697674 L3.19597889,15.0697674 Z" id="Path" fill="#5EBA5E"></path>
                    <path d="M16.9302326,3.19597889 C23.2785706,3.65058112 28.3494189,8.72142943 28.8040211,15.0697674 L24.1860465,15.0697674 L24.1860465,16.744186 C24.1860465,17.36069 23.6862713,17.8604651 23.0697674,17.8604651 C22.4532635,17.8604651 21.9534884,17.36069 21.9534884,16.744186 L21.9534884,15.0697674 L16.9302326,15.0697674 L16.9302326,11.5348837 L17.1162791,11.5348837 C18.5547882,11.5348837 19.7209302,10.3687417 19.7209302,8.93023256 C19.7209302,7.49172344 18.5547882,6.3255814 17.1162791,6.3255814 L16.9302326,6.3255814 L16.9302326,3.19597889 L16.9302326,3.19597889 Z" id="Path" fill="#2CAEE6"></path>
                    <path d="M28.8252939,16.5581395 C28.546319,23.0794379 23.4021259,28.3405711 16.9302326,28.8040211 L16.9302326,23.8139535 L16.1860465,23.8139535 L16.1860465,23.8134356 C16.1833375,23.8137798 16.1806034,23.8139535 16.1778444,23.8139535 L15.2558677,23.8139535 C14.6393638,23.8139535 14.1395887,23.3141783 14.1395887,22.6976744 C14.1395887,22.0811705 14.6393638,21.5813953 15.2558677,21.5813953 L16.1778444,21.5813953 C16.1806027,21.5813953 16.1833368,21.5815787 16.1860465,21.5819421 L16.1860465,21.5813953 L16.9302326,21.5813953 L16.9302326,16.5581395 L20.4651163,16.5581395 L20.4651163,16.744186 C20.4651163,18.1826952 21.6312583,19.3488372 23.0697674,19.3488372 C24.5082766,19.3488372 25.6744186,18.1826952 25.6744186,16.744186 L25.6744186,16.5581395 L28.8252939,16.5581395 L28.8252939,16.5581395 Z" id="Path" fill="#558CD8"></path>
                </g>
            </g>
        </g>
    </g>
</svg>